<?xml version="1.0" encoding="UTF-8" standalone="no"?>
<svg
   xmlns:dc="http://purl.org/dc/elements/1.1/"
   xmlns:cc="http://creativecommons.org/ns#"
   xmlns:rdf="http://www.w3.org/1999/02/22-rdf-syntax-ns#"
   xmlns:svg="http://www.w3.org/2000/svg"
   xmlns="http://www.w3.org/2000/svg"
   xmlns:sodipodi="http://sodipodi.sourceforge.net/DTD/sodipodi-0.dtd"
   xmlns:inkscape="http://www.inkscape.org/namespaces/inkscape"
   id="Layer_1"
   enable-background="new 0 0 512.089 512.089"
   height="512"
   viewBox="0 0 512.089 512.089"
   width="512"
   version="1.1"
   sodipodi:docname="icon-dog-hover.svg"
   inkscape:version="0.92.3 (2405546, 2018-03-11)">
  <metadata
     id="metadata9">
    <rdf:RDF>
      <cc:Work
         rdf:about="">
        <dc:format>image/svg+xml</dc:format>
        <dc:type
           rdf:resource="http://purl.org/dc/dcmitype/StillImage" />
      </cc:Work>
    </rdf:RDF>
  </metadata>
  <defs
     id="defs7">
    <filter
       style="color-interpolation-filters:sRGB;"
       inkscape:label="Drop Shadow"
       id="filter1010">
      <feFlood
         flood-opacity="0.352941"
         flood-color="rgb(96,115,126)"
         result="flood"
         id="feFlood1000" />
      <feComposite
         in="flood"
         in2="SourceGraphic"
         operator="in"
         result="composite1"
         id="feComposite1002" />
      <feGaussianBlur
         in="composite1"
         stdDeviation="30"
         result="blur"
         id="feGaussianBlur1004" />
      <feOffset
         dx="6"
         dy="6"
         result="offset"
         id="feOffset1006" />
      <feComposite
         in="SourceGraphic"
         in2="offset"
         operator="over"
         result="composite2"
         id="feComposite1008" />
    </filter>
  </defs>
  <sodipodi:namedview
     pagecolor="#ffffff"
     bordercolor="#666666"
     borderopacity="1"
     objecttolerance="10"
     gridtolerance="10"
     guidetolerance="10"
     inkscape:pageopacity="0"
     inkscape:pageshadow="2"
     inkscape:window-width="1920"
     inkscape:window-height="1028"
     id="namedview5"
     showgrid="false"
     inkscape:zoom="0.4609375"
     inkscape:cx="-221.28813"
     inkscape:cy="256"
     inkscape:window-x="-8"
     inkscape:window-y="-8"
     inkscape:window-maximized="1"
     inkscape:current-layer="Layer_1" />
  <path
     d="m511.092 149.365c-3.281 21.116-14.587 39.69-31.838 52.301-12.006 8.778-25.669 13.695-39.5 15.012 3.065 8.135 5.884 16.322 8.407 24.523 3.248 10.557-2.678 21.749-13.235 24.996-10.271 3.247-21.777-2.581-24.996-13.235-4.817-15.659-10.78-31.281-17.719-46.507-9.254-5.296-17.587-12.526-24.34-21.6-3.143-3.798-19.206-23.874-29.395-49.345-4.103-10.255.886-21.895 11.142-25.997 10.256-4.105 21.895.886 25.997 11.142 8.579 21.445 23.856 39.654 24.136 40.037 13.017 17.805 38.091 21.701 55.898 8.684 17.619-12.33 21.732-38.804 8.684-55.898-16.255-23.327-71.831-74.307-94.288-73.394-4.566-.001-18.464-.001-32.373 20.07-13.324 19.225-37.026 27.318-58.982 20.135-7.768-2.542-15.384-3.939-22.645-4.159-7.261.219-14.877 1.617-22.644 4.159-21.956 7.181-45.659-.91-58.982-20.135-13.909-20.071-27.807-20.071-32.374-20.071-22.572-.871-78.116 50.185-94.287 73.395-6.306 8.625-8.876 19.189-7.235 29.747 1.64 10.558 7.293 19.845 15.919 26.151 17.806 13.016 42.88 9.121 55.898-8.685.295-.403 15.557-18.59 24.135-40.036 4.102-10.256 15.742-15.246 25.997-11.142 10.256 4.102 15.244 15.742 11.142 25.997-10.189 25.473-26.253 45.55-29.395 49.346-6.752 9.072-15.085 16.302-24.339 21.597-6.94 15.227-12.903 30.85-17.72 46.51-3.219 10.653-14.726 16.483-24.996 13.235-10.558-3.248-16.483-14.439-13.235-24.996 2.523-8.201 5.341-16.388 8.406-24.523-35.024-2.66-66.626-32.027-71.338-67.314-3.281-21.116 1.858-42.245 14.469-59.496 9.532-13.039 29.15-34.525 51.488-53.135 29.194-24.321 54.458-36.652 75.09-36.652 25.782 0 48.345 12.894 65.25 37.287 3.167 4.57 8.661 6.54 13.668 4.902 11.654-3.813 23.766-5.925 35.081-6.188 11.315.263 23.427 2.375 35.082 6.189 5.007 1.636 10.5-.332 13.668-4.902 16.905-24.393 39.468-37.287 65.25-37.287 38.553-2.641 104.96 59.288 126.578 89.788 12.613 17.249 17.752 38.378 14.471 59.494zm-115.513 140.481c.434.033-.431-.062 0 0zm64.428 92.364c-23.326 88.284-110.817 130.508-201.909 129.872h-.069c-91.057.66-178.614-41.612-201.909-129.872-3.207-12.089-4.659-38.554 10.241-61.066 7.868-11.887 24.729-27.084 54.188-31.298 32.92-2.534 65.508 1.2 96.372 10.88 16.883-7.715 64.173-7.32 80.341.628 31.44-10.138 64.706-14.093 98.317-11.507 55.556 7.295 73.44 56.167 64.428 92.363zm-43.597-38.989c-4.85-7.328-12.894-11.762-24.578-13.544-29.574-2.186-58.817 1.619-86.306 11.083-8.051 10.823-18.849 19.365-28.223 25.439 2.04 16.812 16.389 29.883 33.742 29.883 11.046 0 20 8.954 20 20s-8.954 20-20 20c-21.285 0-40.487-9.046-54-23.48-13.513 14.434-32.715 23.48-54 23.48-11.046 0-20-8.954-20-20s8.954-20 20-20c17.128 0 31.332-12.734 33.659-29.23-9.656-6.388-20.807-15.579-28.906-27.034-26.668-8.771-54.929-12.251-83.501-10.141-11.685 1.783-19.729 6.217-24.579 13.545-7.369 11.132-5.733 25.718-4.934 28.732 16.631 62.693 77.667 100.124 163.28 100.128 85.613-.004 146.649-37.435 163.281-100.128.799-3.014 2.434-17.601-4.935-28.733zm-295.861-53.375c.431-.062-.434.033 0 0zm135.496-253.764c.309-.007-.31-.007 0 0zm90.919 186.971c1.215 15.404-11.544 28.163-26.949 26.949-32.898-4.067-29.158-51.155 4.058-49.84 12.118.956 21.936 10.773 22.891 22.891zm-180.839 0c-1.215 15.404 11.544 28.163 26.949 26.949 32.898-4.067 29.158-51.155-4.058-49.84-12.118.956-21.936 10.773-22.891 22.891z"
     id="path2"
     style="fill:#60737e;fill-opacity:1;stroke:none;stroke-opacity:0.35369775;opacity:1;stroke-width:20.00347656;stroke-miterlimit:4;stroke-dasharray:none;filter:url(#filter1010)" />
</svg>
