<?xml version="1.0" encoding="UTF-8" standalone="no"?>
<!-- Generator: Adobe Illustrator 16.0.0, SVG Export Plug-In . SVG Version: 6.00 Build 0)  -->

<svg
   xmlns:dc="http://purl.org/dc/elements/1.1/"
   xmlns:cc="http://creativecommons.org/ns#"
   xmlns:rdf="http://www.w3.org/1999/02/22-rdf-syntax-ns#"
   xmlns:svg="http://www.w3.org/2000/svg"
   xmlns="http://www.w3.org/2000/svg"
   xmlns:sodipodi="http://sodipodi.sourceforge.net/DTD/sodipodi-0.dtd"
   xmlns:inkscape="http://www.inkscape.org/namespaces/inkscape"
   version="1.1"
   id="Capa_1"
   x="0px"
   y="0px"
   width="359.152px"
   height="359.152px"
   viewBox="0 0 359.152 359.152"
   style="enable-background:new 0 0 359.152 359.152;"
   xml:space="preserve"
   sodipodi:docname="home.svg"
   inkscape:version="0.92.3 (2405546, 2018-03-11)"><metadata
   id="metadata1059"><rdf:RDF><cc:Work
       rdf:about=""><dc:format>image/svg+xml</dc:format><dc:type
         rdf:resource="http://purl.org/dc/dcmitype/StillImage" /></cc:Work></rdf:RDF></metadata><defs
   id="defs1057" /><sodipodi:namedview
   pagecolor="#ffffff"
   bordercolor="#666666"
   borderopacity="1"
   objecttolerance="10"
   gridtolerance="10"
   guidetolerance="10"
   inkscape:pageopacity="0"
   inkscape:pageshadow="2"
   inkscape:window-width="1920"
   inkscape:window-height="1028"
   id="namedview1055"
   showgrid="false"
   inkscape:zoom="0.65710338"
   inkscape:cx="92.070748"
   inkscape:cy="179.576"
   inkscape:window-x="-8"
   inkscape:window-y="-8"
   inkscape:window-maximized="1"
   inkscape:current-layer="Capa_1" />
<g
   id="g1022"
   style="fill:#ffffff">
	<g
   id="g1020"
   style="fill:#ffffff">
		<path
   d="M31.489,194.384l7.575-7.548l22.458,149.268c0,6.232,5.17,11.289,11.553,11.289h216.95    c6.383,0,11.553-5.057,11.553-11.289l21.93-145.743l4.372,4.233c3.578,3.471,8.208,5.2,12.832,5.2    c4.815,0,9.625-1.873,13.24-5.614c7.092-7.32,6.905-18.993-0.408-26.085L203.31,22.562c-6.965-6.966-16.23-10.803-26.084-10.803    c-9.851,0-19.11,3.837-26.084,10.803L5.404,168.299c-7.206,7.2-7.206,18.885,0,26.085C12.613,201.59,24.283,201.59,31.489,194.384    z M181.356,271.558c-25.187,0-45.606-20.423-45.606-45.606c0-25.185,20.419-45.606,45.606-45.606    c25.185,0,45.606,20.422,45.606,45.606C226.957,251.135,206.541,271.558,181.356,271.558z"
   id="path1018"
   style="fill:#ffffff" />
	</g>
</g>
<g
   id="g1024">
</g>
<g
   id="g1026">
</g>
<g
   id="g1028">
</g>
<g
   id="g1030">
</g>
<g
   id="g1032">
</g>
<g
   id="g1034">
</g>
<g
   id="g1036">
</g>
<g
   id="g1038">
</g>
<g
   id="g1040">
</g>
<g
   id="g1042">
</g>
<g
   id="g1044">
</g>
<g
   id="g1046">
</g>
<g
   id="g1048">
</g>
<g
   id="g1050">
</g>
<g
   id="g1052">
</g>
</svg>