<?xml version="1.0" encoding="UTF-8" standalone="no"?>
<svg
   xmlns:dc="http://purl.org/dc/elements/1.1/"
   xmlns:cc="http://creativecommons.org/ns#"
   xmlns:rdf="http://www.w3.org/1999/02/22-rdf-syntax-ns#"
   xmlns:svg="http://www.w3.org/2000/svg"
   xmlns="http://www.w3.org/2000/svg"
   xmlns:sodipodi="http://sodipodi.sourceforge.net/DTD/sodipodi-0.dtd"
   xmlns:inkscape="http://www.inkscape.org/namespaces/inkscape"
   id="Layer_1"
   enable-background="new 0 0 512.007 512.007"
   height="512"
   viewBox="0 0 512.007 512.007"
   width="512"
   version="1.1"
   sodipodi:docname="cat.svg"
   inkscape:version="0.92.3 (2405546, 2018-03-11)">
  <metadata
     id="metadata9">
    <rdf:RDF>
      <cc:Work
         rdf:about="">
        <dc:format>image/svg+xml</dc:format>
        <dc:type
           rdf:resource="http://purl.org/dc/dcmitype/StillImage" />
      </cc:Work>
    </rdf:RDF>
  </metadata>
  <defs
     id="defs7" />
  <sodipodi:namedview
     pagecolor="#ffffff"
     bordercolor="#666666"
     borderopacity="1"
     objecttolerance="10"
     gridtolerance="10"
     guidetolerance="10"
     inkscape:pageopacity="0"
     inkscape:pageshadow="2"
     inkscape:window-width="1920"
     inkscape:window-height="1028"
     id="namedview5"
     showgrid="false"
     inkscape:zoom="0.4609375"
     inkscape:cx="131.25424"
     inkscape:cy="256"
     inkscape:window-x="-8"
     inkscape:window-y="-8"
     inkscape:window-maximized="1"
     inkscape:current-layer="Layer_1" />
  <path
     d="m512 50.148v185.918c-1.056 26.536-38.953 26.516-40 0v-185.918c0-5.314-3.601-7.886-5.149-8.745-1.526-.847-5.521-2.504-9.953.144l-50.751 33.811c-21.575 14.374-48.936 17.523-73.192 8.423-49.028-18.576-105.52-18.252-154.313.918-25.606 9.962-54.193 6.396-76.47-9.535l-46.948-33.576c-4.402-2.723-8.429-1.106-9.977-.271-1.577.853-5.247 3.416-5.247 8.799v185.95c-1.056 26.536-38.953 26.516-40 0v-185.95c0-18.393 10.053-35.25 26.235-43.992 16.182-8.742 35.792-7.909 51.174 2.174.227.148 48.029 34.329 48.029 34.329 11.256 8.049 25.724 9.841 38.702 4.792 57.876-22.735 124.711-23.119 182.864-1.09 12.244 4.594 26.062 3.001 36.964-4.261 0 0 51.394-34.234 51.562-34.34 32.472-21.049 77.139 3.74 76.47 42.42zm-24.804 260.466c8.243 18.261 7.973 39.044-.744 57.021-20.673 42.634-52.738 78.686-92.729 104.257-126.557 82.548-303.227 32.557-367.986-103.869-8.727-17.92-9.051-38.661-.889-56.904 8.172-18.268 23.877-31.87 43.088-37.318 52.87-14.994 109.38-12.379 160.264 6.672 14-3.223 42.504-3.137 56.408.123 50.552-18.992 106.734-21.771 159.322-7.145 19.253 5.353 35.022 18.898 43.266 37.163zm-36.457 16.457c-3.35-7.42-9.737-12.917-17.526-15.084-39.924-11.104-82.292-10.321-121.443 1.6-7.912 15.843-22.583 27.902-34.77 35.762v5.717c0 18.748 15.252 34 34 34 11.046 0 20 8.954 20 20s-8.954 20-20 20c-21.285 0-40.487-9.046-54-23.48-13.513 14.434-32.715 23.48-54 23.48-11.046 0-20-8.954-20-20s8.954-20 20-20c18.748 0 34-15.252 34-34v-5.006c-12.108-7.956-26.668-20.362-34.616-36.147-39.967-12.419-83.14-13.099-123.533-1.63-7.79 2.209-14.165 7.738-17.489 15.17-3.313 7.407-3.19 15.811.339 23.057 76.756 161.433 312.329 161.204 388.76-.33 3.524-7.268 3.626-15.692.278-23.109zm-78.819-131.033c1.215 15.404-11.544 28.163-26.949 26.949-32.898-4.067-29.158-51.155 4.057-49.84 12.119.955 21.936 10.773 22.892 22.891zm-230.84 0c-1.215 15.404 11.544 28.163 26.949 26.949 32.898-4.067 29.158-51.155-4.058-49.84-12.118.955-21.935 10.773-22.891 22.891z"
     id="path2"
     style="fill:#3d505a;fill-opacity:1" />
</svg>
