<?xml version="1.0" encoding="UTF-8" standalone="no"?>
<svg
   xmlns:dc="http://purl.org/dc/elements/1.1/"
   xmlns:cc="http://creativecommons.org/ns#"
   xmlns:rdf="http://www.w3.org/1999/02/22-rdf-syntax-ns#"
   xmlns:svg="http://www.w3.org/2000/svg"
   xmlns="http://www.w3.org/2000/svg"
   xmlns:sodipodi="http://sodipodi.sourceforge.net/DTD/sodipodi-0.dtd"
   xmlns:inkscape="http://www.inkscape.org/namespaces/inkscape"
   id="Capa_1"
   enable-background="new 0 0 515.558 515.558"
   height="512"
   viewBox="0 0 515.558 515.558"
   width="512"
   version="1.1"
   sodipodi:docname="search.svg"
   inkscape:version="0.92.3 (2405546, 2018-03-11)">
  <metadata
     id="metadata3608">
    <rdf:RDF>
      <cc:Work
         rdf:about="">
        <dc:format>image/svg+xml</dc:format>
        <dc:type
           rdf:resource="http://purl.org/dc/dcmitype/StillImage" />
      </cc:Work>
    </rdf:RDF>
  </metadata>
  <defs
     id="defs3606" />
  <sodipodi:namedview
     pagecolor="#ffffff"
     bordercolor="#666666"
     borderopacity="1"
     objecttolerance="10"
     gridtolerance="10"
     guidetolerance="10"
     inkscape:pageopacity="0"
     inkscape:pageshadow="2"
     inkscape:window-width="1920"
     inkscape:window-height="1028"
     id="namedview3604"
     showgrid="false"
     inkscape:zoom="0.4609375"
     inkscape:cx="131.25424"
     inkscape:cy="256"
     inkscape:window-x="-8"
     inkscape:window-y="-8"
     inkscape:window-maximized="1"
     inkscape:current-layer="Capa_1" />
  <path
     d="m378.344 332.78c25.37-34.645 40.545-77.2 40.545-123.333 0-115.484-93.961-209.445-209.445-209.445s-209.444 93.961-209.444 209.445 93.961 209.445 209.445 209.445c46.133 0 88.692-15.177 123.337-40.547l137.212 137.212 45.564-45.564c0-.001-137.214-137.213-137.214-137.213zm-168.899 21.667c-79.958 0-145-65.042-145-145s65.042-145 145-145 145 65.042 145 145-65.043 145-145 145z"
     id="path3601"
     style="fill:#cf8040;fill-opacity:1" />
</svg>
