<?xml version="1.0" encoding="UTF-8" standalone="no"?>
<svg
   xmlns:dc="http://purl.org/dc/elements/1.1/"
   xmlns:cc="http://creativecommons.org/ns#"
   xmlns:rdf="http://www.w3.org/1999/02/22-rdf-syntax-ns#"
   xmlns:svg="http://www.w3.org/2000/svg"
   xmlns="http://www.w3.org/2000/svg"
   xmlns:sodipodi="http://sodipodi.sourceforge.net/DTD/sodipodi-0.dtd"
   xmlns:inkscape="http://www.inkscape.org/namespaces/inkscape"
   id="Layer_1"
   enable-background="new 0 0 512.698 512.698"
   height="512"
   viewBox="0 0 512.698 512.698"
   width="512"
   version="1.1"
   sodipodi:docname="snake.svg"
   inkscape:version="0.92.3 (2405546, 2018-03-11)">
  <metadata
     id="metadata9">
    <rdf:RDF>
      <cc:Work
         rdf:about="">
        <dc:format>image/svg+xml</dc:format>
        <dc:type
           rdf:resource="http://purl.org/dc/dcmitype/StillImage" />
      </cc:Work>
    </rdf:RDF>
  </metadata>
  <defs
     id="defs7" />
  <sodipodi:namedview
     pagecolor="#ffffff"
     bordercolor="#666666"
     borderopacity="1"
     objecttolerance="10"
     gridtolerance="10"
     guidetolerance="10"
     inkscape:pageopacity="0"
     inkscape:pageshadow="2"
     inkscape:window-width="1920"
     inkscape:window-height="1028"
     id="namedview5"
     showgrid="false"
     inkscape:zoom="0.4609375"
     inkscape:cx="131.25424"
     inkscape:cy="256"
     inkscape:window-x="-8"
     inkscape:window-y="-8"
     inkscape:window-maximized="1"
     inkscape:current-layer="Layer_1" />
  <path
     d="m451.201 322.268c-33.56-13.383-77.751-20.753-124.435-20.753-85.33 0-205.5 26.682-205.5 86 0 17.812 14.914 30.959 44.329 39.077 19.056 5.259 42.992 8.276 65.671 8.276 11.046 0 20-8.954 20-20s-8.954-20-20-20c-29.498 0-56.809-6.059-67.903-11.294 4.215-5.257 15.738-14.54 42.845-23.803 63.507-22.393 168.524-25.722 230.177-.347 24.653 9.831 35.882 21.453 35.882 28.091 0 19.098-21.403 40.023-57.253 55.973-82.314 38.414-235.18 38.417-317.494-.001-35.85-15.949-57.253-36.874-57.253-55.972 0-18.471 7.104-46.389 68.529-75.466 87.869-41.752 235.594-61.075 323.931-100.582 24.238-10.858 42.299-22.468 55.214-35.495 34.679-33.387 30.886-85.953-2.535-118.091-40.17-44.089-155.491-58.759-209.799-57.367-11.982-.072-109.431-.288-145.679 11.826-14.682 4.906-28.006 15.638-36.556 29.444-9.513 15.359-12.024 32.978-6.892 48.337 5.133 15.36 17.733 27.928 34.569 34.482 8.307 3.233 17.204 4.862 25.972 4.862 7.203 0 14.319-1.1 20.941-3.313 37.347-12.481 60.561-39.037 79.213-60.374 10.534-11.956 22.026-25.415 28.782-25.266 38.179.023 194.551 6.997 196.31 80.001-.001 7.276-.001 29.412-55.894 54.448-88.536 38.77-235.976 58.129-324.692 100.933-28.125 13.313-49.08 27.744-64.065 44.118-51.959 60.076-28.669 124.609 53.644 160.02 92.488 42.988 257.525 42.989 350.013-.001 81.93-35.162 123.599-115.636 19.928-157.763zm-295.916-234.053c-11.689 3.907-27.846-1.73-30.867-10.772-1.354-4.053-.275-9.374 2.96-14.598 3.603-5.817 9.437-10.632 15.228-12.567 13.908-4.648 43.639-7.182 72.419-8.498-15.785 18.021-33.809 37.769-59.74 46.435zm-109.092 114.302c-1.049 0-2.112-.083-3.181-.253-10.907-1.744-18.337-11.999-16.593-22.906 0 0 1.503-9.108 1.854-10.717-1.582-.138-10.631-1.299-10.631-1.299-26.166-4.527-21.182-42.092 5.246-39.654l5.84.772c12.487 1.653 21.892-.248 29.587-5.982 8.857-6.6 21.387-4.77 27.987 4.086 2.675 3.589 3.965 7.782 3.964 11.939-.001 6.1-2.783 12.123-8.051 16.048-8.771 6.537-13.655 14.576-15.369 25.302l-.93 5.817c-1.57 9.839-10.068 16.847-19.723 16.847zm316.962 224.391c10.711-2.7 17.204-13.571 14.505-24.282-2.699-10.709-13.563-17.203-24.282-14.505-18.914 4.768-37.421 7.394-52.111 7.394-26.528 1.052-26.523 38.951 0 40 22.931 0 46.312-4.681 61.888-8.607z"
     id="path2"
     style="fill:#3d505a;fill-opacity:1" />
</svg>
