<?xml version="1.0" encoding="UTF-8" standalone="no"?>
<svg
   xmlns:dc="http://purl.org/dc/elements/1.1/"
   xmlns:cc="http://creativecommons.org/ns#"
   xmlns:rdf="http://www.w3.org/1999/02/22-rdf-syntax-ns#"
   xmlns:svg="http://www.w3.org/2000/svg"
   xmlns="http://www.w3.org/2000/svg"
   xmlns:sodipodi="http://sodipodi.sourceforge.net/DTD/sodipodi-0.dtd"
   xmlns:inkscape="http://www.inkscape.org/namespaces/inkscape"
   id="Capa_1"
   enable-background="new 0 0 512 512"
   height="512"
   viewBox="0 0 512 512"
   width="512"
   version="1.1"
   sodipodi:docname="help.svg"
   inkscape:version="0.92.3 (2405546, 2018-03-11)">
  <metadata
     id="metadata29">
    <rdf:RDF>
      <cc:Work
         rdf:about="">
        <dc:format>image/svg+xml</dc:format>
        <dc:type
           rdf:resource="http://purl.org/dc/dcmitype/StillImage" />
      </cc:Work>
    </rdf:RDF>
  </metadata>
  <defs
     id="defs27" />
  <sodipodi:namedview
     pagecolor="#ffffff"
     bordercolor="#666666"
     borderopacity="1"
     objecttolerance="10"
     gridtolerance="10"
     guidetolerance="10"
     inkscape:pageopacity="0"
     inkscape:pageshadow="2"
     inkscape:window-width="1920"
     inkscape:window-height="1028"
     id="namedview25"
     showgrid="false"
     inkscape:zoom="0.4609375"
     inkscape:cx="131.25424"
     inkscape:cy="256"
     inkscape:window-x="-8"
     inkscape:window-y="-8"
     inkscape:window-maximized="1"
     inkscape:current-layer="Capa_1" />
  <g
     id="g22"
     style="fill:#60737e;fill-opacity:1">
    <g
       id="g16"
       style="fill:#60737e;fill-opacity:1">
      <g
         id="g14"
         style="fill:#60737e;fill-opacity:1">
        <g
           id="g4"
           style="fill:#60737e;fill-opacity:1">
          <path
             d="m308.104 325.774v-67.148h-145.909v-258.626h349.805v258.626h-91.565zm-115.909-97.148h145.908v44.264l74.048-44.264h69.849v-198.626h-289.805z"
             id="path2"
             style="fill:#60737e;fill-opacity:1" />
        </g>
        <g
           id="g12"
           style="fill:#60737e;fill-opacity:1">
          <path
             d="m212.801 156.767 8.339-18.873c7.242 4.279 16.898 7.022 25.347 7.022 7.352 0 9.985-1.536 9.985-4.17 0-9.655-42.464-1.865-42.464-30.504 0-14.264 11.96-25.895 35.771-25.895 10.314 0 20.958 2.194 28.967 6.693l-7.79 18.763c-7.571-3.841-14.704-5.706-21.397-5.706-7.571 0-9.985 2.195-9.985 4.828 0 9.217 42.464 1.536 42.464 29.846 0 14.045-11.96 25.896-35.771 25.896-12.838 0-25.785-3.183-33.466-7.9z"
             id="path6"
             style="fill:#60737e;fill-opacity:1" />
          <path
             d="m292.136 124.507c0-23.262 18.324-40.159 43.342-40.159s43.342 16.897 43.342 40.159-18.324 40.16-43.342 40.16-43.342-16.898-43.342-40.16zm60.568 0c0-11.96-7.681-19.202-17.227-19.202-9.547 0-17.228 7.242-17.228 19.202s7.681 19.202 17.228 19.202c9.546 0 17.227-7.242 17.227-19.202z"
             id="path8"
             style="fill:#60737e;fill-opacity:1" />
          <path
             d="m388.916 156.767 8.339-18.873c7.242 4.279 16.898 7.022 25.347 7.022 7.352 0 9.985-1.536 9.985-4.17 0-9.655-42.464-1.865-42.464-30.504 0-14.264 11.96-25.895 35.771-25.895 10.314 0 20.958 2.194 28.968 6.693l-7.791 18.763c-7.57-3.841-14.703-5.706-21.396-5.706-7.57 0-9.984 2.195-9.984 4.828 0 9.217 42.464 1.536 42.464 29.846 0 14.045-11.96 25.896-35.771 25.896-12.84 0-25.787-3.183-33.468-7.9z"
             id="path10"
             style="fill:#60737e;fill-opacity:1" />
        </g>
      </g>
    </g>
    <g
       id="g20"
       style="fill:#60737e;fill-opacity:1">
      <path
         d="m512 512h-29.972v-42.225c0-6.579-5.352-11.931-11.931-11.931s-11.931 5.352-11.931 11.931v2.501c0 21.886-17.806 39.692-39.692 39.692-22.556 0-40.905-18.35-40.905-40.905v-2.284c0-6.029-4.905-10.934-10.934-10.934-6.115 0-11.02 4.905-11.02 10.934v2.284c0 22.555-18.35 40.905-40.905 40.905h-84.188l-1.165-.184c-57.533-9.113-109.816-36.014-151.199-77.795-41.208-41.606-67.822-94.107-76.964-151.828l-1.194-7.541 75.882-75.897 83.651 83.65-35.463 35.476c10.642 33.188 36.411 58.956 69.599 69.599l35.476-35.462 83.523 83.523-45.39 46.487h47.432c6.029 0 10.934-4.905 10.934-10.934v-2.284c0-22.555 18.35-40.906 40.905-40.906 22.642 0 40.992 18.35 40.992 40.906v2.284c0 6.029 4.905 10.934 10.934 10.934 5.36 0 9.72-4.361 9.72-9.72v-2.501c0-23.105 18.797-41.903 41.903-41.903 23.105 0 41.903 18.797 41.903 41.903v42.225zm-479.91-227.086c9.189 48.549 32.38 92.664 67.362 127.982 35.042 35.38 78.828 58.777 127.042 67.966l44.038-45.103-41.392-41.392-26.405 26.395-8.158-1.959c-24.732-5.937-47.311-18.582-65.296-36.567s-30.63-40.564-36.567-65.296l-1.959-8.159 26.395-26.405-41.265-41.265z"
         id="path18"
         style="fill:#60737e;fill-opacity:1" />
    </g>
  </g>
</svg>
