<?xml version="1.0" encoding="UTF-8" standalone="no"?>
<!-- Generator: Adobe Illustrator 19.0.0, SVG Export Plug-In . SVG Version: 6.00 Build 0)  -->

<svg
   xmlns:dc="http://purl.org/dc/elements/1.1/"
   xmlns:cc="http://creativecommons.org/ns#"
   xmlns:rdf="http://www.w3.org/1999/02/22-rdf-syntax-ns#"
   xmlns:svg="http://www.w3.org/2000/svg"
   xmlns="http://www.w3.org/2000/svg"
   xmlns:sodipodi="http://sodipodi.sourceforge.net/DTD/sodipodi-0.dtd"
   xmlns:inkscape="http://www.inkscape.org/namespaces/inkscape"
   version="1.1"
   id="Capa_1"
   x="0px"
   y="0px"
   viewBox="0 0 512 512"
   style="enable-background:new 0 0 512 512;"
   xml:space="preserve"
   sodipodi:docname="box.svg"
   inkscape:version="0.92.3 (2405546, 2018-03-11)"><metadata
   id="metadata49"><rdf:RDF><cc:Work
       rdf:about=""><dc:format>image/svg+xml</dc:format><dc:type
         rdf:resource="http://purl.org/dc/dcmitype/StillImage" /></cc:Work></rdf:RDF></metadata><defs
   id="defs47" /><sodipodi:namedview
   pagecolor="#ffffff"
   bordercolor="#666666"
   borderopacity="1"
   objecttolerance="10"
   gridtolerance="10"
   guidetolerance="10"
   inkscape:pageopacity="0"
   inkscape:pageshadow="2"
   inkscape:window-width="1920"
   inkscape:window-height="1028"
   id="namedview45"
   showgrid="false"
   inkscape:zoom="0.4609375"
   inkscape:cx="131.25424"
   inkscape:cy="256"
   inkscape:window-x="-8"
   inkscape:window-y="-8"
   inkscape:window-maximized="1"
   inkscape:current-layer="Capa_1" />
<g
   id="g6"
   style="fill:#60737e;fill-opacity:1">
	<g
   id="g4"
   style="fill:#60737e;fill-opacity:1">
		<path
   d="M459.943,314.321V127.83L238.534,0L17.126,127.83v255.66l221.408,127.83l58.9-34.006    C318.354,498.701,347.512,512,379.721,512c63.495,0,115.153-51.658,115.153-115.153    C494.874,364.514,481.474,335.257,459.943,314.321z M238.534,34.686l176.349,101.815l-73.154,42.236L165.38,76.922L238.534,34.686    z M223.514,467.961L47.166,366.146V162.517l176.348,101.815V467.961z M62.186,136.501l73.154-42.236L311.689,196.08    l-73.155,42.236L62.186,136.501z M253.554,467.961v-203.63l176.348-101.815v130.701c-15.176-7.379-32.203-11.522-50.181-11.522    c-63.495,0-115.153,51.658-115.153,115.153c0,20.421,5.35,39.614,14.712,56.261L253.554,467.961z M379.721,481.96    c-46.931,0-85.113-38.182-85.113-85.113c0-46.931,38.182-85.113,85.113-85.113c46.931,0,85.113,38.182,85.113,85.113    C464.834,443.778,426.653,481.96,379.721,481.96z"
   id="path2"
   style="fill:#60737e;fill-opacity:1" />
	</g>
</g>
<g
   id="g12"
   style="fill:#60737e;fill-opacity:1">
	<g
   id="g10"
   style="fill:#60737e;fill-opacity:1">
		<polygon
   points="415.287,353.212 366.104,402.667 344.073,380.859 322.94,402.207 366.27,445.1 436.587,374.394   "
   id="polygon8"
   style="fill:#60737e;fill-opacity:1" />
	</g>
</g>
<g
   id="g14">
</g>
<g
   id="g16">
</g>
<g
   id="g18">
</g>
<g
   id="g20">
</g>
<g
   id="g22">
</g>
<g
   id="g24">
</g>
<g
   id="g26">
</g>
<g
   id="g28">
</g>
<g
   id="g30">
</g>
<g
   id="g32">
</g>
<g
   id="g34">
</g>
<g
   id="g36">
</g>
<g
   id="g38">
</g>
<g
   id="g40">
</g>
<g
   id="g42">
</g>
</svg>